<?xml version="1.0" encoding="UTF-8" standalone="no"?>
<svg width="117px" height="37px" viewBox="0 0 117 37" version="1.1" xmlns="http://www.w3.org/2000/svg" xmlns:xlink="http://www.w3.org/1999/xlink">
    <!-- Generator: Sketch 43.2 (39069) - http://www.bohemiancoding.com/sketch -->
    <title>airbnb-logo</title>
    <desc>Created with Sketch.</desc>
    <defs></defs>
    <g id="Symbols" stroke="none" stroke-width="1" fill="none" fill-rule="evenodd">
        <g id="Logo-Bar" transform="translate(-865.000000, -26.000000)" fill="#7F90A0">
            <g id="airbnb-logo">
                <path d="M926.662617,35.2965297 C926.662617,36.6296841 925.602881,37.7035268 924.287241,37.7035268 C922.971601,37.7035268 921.910833,36.6296841 921.910833,35.2965297 C921.910833,33.9633753 922.934453,32.8895326 924.287241,32.8895326 C925.638997,32.926129 926.662617,33.9999717 926.662617,35.2965297 L926.662617,35.2965297 Z M916.867029,40.1481659 L916.867029,40.7410275 C916.867029,40.7410275 915.734031,39.2593964 913.322539,39.2593964 C909.338471,39.2593964 906.231495,42.3334935 906.231495,46.5922681 C906.231495,50.8144464 909.301323,53.9261855 913.322539,53.9261855 C915.771178,53.9261855 916.867029,52.4069123 916.867029,52.4069123 L916.867029,53.0374159 C916.867029,53.3333239 917.086819,53.5560391 917.378839,53.5560391 L920.339288,53.5560391 L920.339288,39.6295428 L917.378839,39.6295428 C917.086819,39.6295428 916.867029,39.8888543 916.867029,40.1481659 L916.867029,40.1481659 Z M916.867029,49.0745493 C916.319104,49.8890804 915.222221,50.5927768 913.90658,50.5927768 C911.56732,50.5927768 909.777017,49.1111457 909.777017,46.5922681 C909.777017,44.0744362 911.56732,42.5928051 913.90658,42.5928051 C915.186105,42.5928051 916.355219,43.3330978 916.867029,44.1110326 L916.867029,49.0745493 L916.867029,49.0745493 Z M922.533054,39.6295428 L926.041428,39.6295428 L926.041428,53.5549935 L922.533054,53.5549935 L922.533054,39.6295428 Z M974.945072,39.2593964 C972.53358,39.2593964 971.400582,40.7410275 971.400582,40.7410275 L971.400582,32.926129 L967.891176,32.926129 L967.891176,53.5560391 L970.851624,53.5560391 C971.143645,53.5560391 971.363434,53.2956819 971.363434,53.0374159 L971.363434,52.4069123 C971.363434,52.4069123 972.496433,53.9261855 974.908956,53.9261855 C978.893025,53.9261855 982,50.8144464 982,46.5922681 C982,42.3700899 978.893025,39.2593964 974.945072,39.2593964 L974.945072,39.2593964 Z M974.361031,50.5551348 C973.008243,50.5551348 971.948507,49.8514384 971.400582,49.0369073 L971.400582,44.0744362 C971.948507,43.3330978 973.117622,42.5562087 974.361031,42.5562087 C976.700291,42.5562087 978.490594,44.0367942 978.490594,46.5556717 C978.490594,49.0745493 976.700291,50.5551348 974.361031,50.5551348 L974.361031,50.5551348 Z M966.063725,45.2967558 L966.063725,53.5926355 L962.555351,53.5926355 L962.555351,45.7034986 C962.555351,43.4073362 961.823752,42.4819703 959.849775,42.4819703 C958.79004,42.4819703 957.694189,43.0371898 956.999737,43.851721 L956.999737,53.5560391 L953.49033,53.5560391 L953.49033,39.6295428 L956.268138,39.6295428 C956.56119,39.6295428 956.779947,39.8888543 956.779947,40.1481659 L956.779947,40.7410275 C957.803567,39.6671848 959.155323,39.2593964 960.508111,39.2593964 C962.043541,39.2593964 963.322034,39.7037812 964.345654,40.5925507 C965.589063,41.6297971 966.063725,42.9629514 966.063725,45.2967558 L966.063725,45.2967558 Z M944.974268,39.2593964 C942.561744,39.2593964 941.428746,40.7410275 941.428746,40.7410275 L941.428746,32.926129 L937.920371,32.926129 L937.920371,53.5560391 L940.88082,53.5560391 C941.172841,53.5560391 941.39263,53.2956819 941.39263,53.0374159 L941.39263,52.4069123 C941.39263,52.4069123 942.525629,53.9261855 944.938152,53.9261855 C948.922221,53.9261855 952.029196,50.8144464 952.029196,46.5922681 C952.065311,42.3700899 948.958336,39.2593964 944.974268,39.2593964 L944.974268,39.2593964 Z M944.389195,50.5551348 C943.037439,50.5551348 941.977703,49.8514384 941.428746,49.0369073 L941.428746,44.0744362 C941.977703,43.3330978 943.146817,42.5562087 944.389195,42.5562087 C946.728455,42.5562087 948.519789,44.0367942 948.519789,46.5556717 C948.519789,49.0745493 946.728455,50.5551348 944.389195,50.5551348 L944.389195,50.5551348 Z M934.886659,39.2593964 C935.946395,39.2593964 936.495352,39.4444696 936.495352,39.4444696 L936.495352,42.7412819 C936.495352,42.7412819 933.571019,41.7406319 931.743569,43.851721 L931.743569,53.5926355 L928.234162,53.5926355 L928.234162,39.6295428 L931.194611,39.6295428 C931.487664,39.6295428 931.706421,39.8888543 931.706421,40.1481659 L931.706421,40.7410275 C932.364757,39.9630927 933.789776,39.2593964 934.886659,39.2593964 L934.886659,39.2593964 Z M898.446,52.2960775 C898.263358,51.8516928 898.080716,51.3707116 897.898074,50.9629232 C897.606054,50.2968688 897.313001,49.6663652 897.057096,49.0745493 L897.020981,49.0369073 C894.499079,43.4815746 891.793503,37.8520036 888.943465,32.296671 L888.833054,32.0739558 C888.541033,31.5187362 888.249013,30.9258746 887.95596,30.3340587 C887.590677,29.6669587 887.225393,28.9632623 886.64032,28.2961623 C885.471206,26.8155768 883.78925,26 881.998947,26 C880.171497,26 878.526688,26.8155768 877.320427,28.2229695 C876.771469,28.8890239 876.37007,29.5927203 876.004786,30.2598203 C875.711734,30.8516362 875.419713,31.4444978 875.127693,32.000763 L875.017282,32.2224326 C872.203359,37.7777652 869.461668,43.4073362 866.939766,48.9626689 L866.90365,49.0369073 C866.647745,49.6297688 866.354693,50.2592268 866.062672,50.9263268 C865.88003,51.3330696 865.697389,51.7774544 865.514747,52.2594812 C865.039052,53.6292319 864.893558,54.9257899 865.0762,56.2589442 C865.477599,59.0371333 867.30505,61.369892 869.826952,62.4071384 C870.777308,62.8149268 871.764813,63 872.7874,63 C873.080453,63 873.445737,62.962358 873.737757,62.9257616 C874.944019,62.7772848 876.187428,62.370542 877.39369,61.6668456 C878.891972,60.8146725 880.316991,59.5923529 881.925684,57.8148138 C883.533345,59.5923529 884.995512,60.8146725 886.457678,61.6668456 C887.66394,62.370542 888.906317,62.7772848 890.112579,62.9257616 C890.404599,62.962358 890.770915,63 891.062935,63 C892.086555,63 893.110175,62.8149268 894.023384,62.4071384 C896.582434,61.369892 898.372737,58.9994913 898.775168,56.2589442 C899.067189,54.9623863 898.921694,53.6668739 898.446,52.2960775 L898.446,52.2960775 Z M881.9618,54.2220935 C879.987823,51.703216 878.70933,49.3338608 878.270783,47.3336065 C878.088141,46.4814333 878.050994,45.7411406 878.160373,45.0740406 C878.233636,44.4822246 878.453425,43.9625558 878.745446,43.5192166 C879.439897,42.5185667 880.610044,41.8891087 881.9618,41.8891087 C883.314587,41.8891087 884.520849,42.4819703 885.178153,43.5192166 C885.471206,43.9625558 885.689963,44.4822246 885.763226,45.0740406 C885.872605,45.7411406 885.83649,46.5180297 885.653848,47.3336065 C885.215301,49.2962188 883.935776,51.6666196 881.9618,54.2220935 L881.9618,54.2220935 Z M896.545286,55.9630362 C896.289381,57.8890522 895.010889,59.5557565 893.219554,60.2960493 C892.34246,60.6661957 891.392104,60.7780761 890.441747,60.6661957 C889.527506,60.5553609 888.614297,60.2594529 887.66394,59.7031877 C886.348299,58.9628949 885.032659,57.8148138 883.497229,56.111513 C885.909753,53.1106087 887.371919,50.3700616 887.919845,47.9264681 C888.17575,46.7783869 888.211865,45.7411406 888.102487,44.7781326 C887.95596,43.851721 887.626792,43.0005935 887.116014,42.2592551 C885.983016,40.5925507 884.082302,39.6295428 881.9618,39.6295428 C879.842329,39.6295428 877.941615,40.6301927 876.808617,42.2592551 C876.296807,43.0005935 875.967639,43.851721 875.822144,44.7781326 C875.675618,45.7411406 875.711734,46.8149833 876.004786,47.9264681 C876.552712,50.3700616 878.050994,53.1482507 880.427402,56.1481094 C878.928088,57.8514102 877.576332,58.9994913 876.260691,59.7408297 C875.310334,60.2960493 874.396093,60.5930029 873.482884,60.7038377 C872.49538,60.8146725 871.545023,60.6661957 870.705077,60.3336913 C868.913742,59.5923529 867.634218,57.9256486 867.378313,55.9996326 C867.268934,55.0742667 867.342197,54.1478551 867.707481,53.1106087 C867.817891,52.7404623 867.999501,52.3703159 868.183175,51.9259312 C868.43908,51.3330696 868.731101,50.7036116 869.023121,50.0741536 L869.060269,49.9999152 C871.582171,44.4822246 874.286715,38.851608 877.100637,33.3705138 L877.211048,33.1488442 C877.503068,32.592579 877.795089,32.000763 878.088141,31.4444978 C878.380162,30.8516362 878.70933,30.2964167 879.110729,29.8154355 C879.878444,28.9266659 880.902064,28.4446391 882.035063,28.4446391 C883.168061,28.4446391 884.191681,28.9266659 884.959396,29.8154355 C885.360795,30.2964167 885.689963,30.8516362 885.983016,31.4444978 C886.275036,32.000763 886.567057,32.592579 886.860109,33.1488442 L886.969488,33.3705138 C889.747295,38.88925 892.451839,44.518821 894.973741,50.0375572 L894.973741,50.0741536 C895.265762,50.6670152 895.521667,51.3330696 895.814719,51.9259312 C895.997361,52.3703159 896.180003,52.7404623 896.289381,53.1106087 C896.582434,54.0736167 896.691813,55.0000283 896.545286,55.9630362 L896.545286,55.9630362 Z"></path>
            </g>
        </g>
    </g>
</svg>