<?xml version="1.0" encoding="UTF-8" standalone="no"?>
<svg width="150px" height="29px" viewBox="0 0 150 29" version="1.1" xmlns="http://www.w3.org/2000/svg" xmlns:xlink="http://www.w3.org/1999/xlink">
    <!-- Generator: Sketch 43.2 (39069) - http://www.bohemiancoding.com/sketch -->
    <title>glassdoor-logo</title>
    <desc>Created with Sketch.</desc>
    <defs></defs>
    <g id="Symbols" stroke="none" stroke-width="1" fill="none" fill-rule="evenodd">
        <g id="Logo-Bar" transform="translate(-645.000000, -179.000000)" fill="#7F90A0">
            <g id="glassdoor-logo">
                <path d="M793.193493,184.695259 L793.393151,184.695259 C793.456164,184.695259 793.509932,184.689118 793.553767,184.677176 C793.597945,184.665235 793.633562,184.647835 793.660959,184.624976 C793.687671,184.602118 793.707192,184.574141 793.719178,184.541047 C793.731507,184.507953 793.737671,184.4694 793.737671,184.426071 C793.737671,184.383765 793.731849,184.346576 793.721233,184.314506 C793.709932,184.282435 793.692466,184.256165 793.667466,184.235694 C793.642808,184.215224 793.610274,184.199529 793.570205,184.189294 C793.530137,184.179059 793.480479,184.173941 793.42089,184.173941 L793.193493,184.173941 L793.193493,184.695259 Z M793.193493,184.890753 L793.193493,185.497706 L792.924658,185.497706 L792.924658,183.968212 L793.42089,183.968212 C793.617808,183.968212 793.764384,184.004035 793.859589,184.075341 C793.954795,184.146988 794.002397,184.252071 794.002397,184.391612 C794.002397,184.499424 793.971575,184.590518 793.910274,184.665918 C793.848973,184.741659 793.757192,184.793859 793.635959,184.822176 C793.655137,184.833776 793.671918,184.847765 793.686644,184.865165 C793.700685,184.882224 793.714384,184.902012 793.727055,184.925212 L794.119863,185.497706 L793.865068,185.497706 C793.826712,185.497706 793.79863,185.483718 793.780479,185.455059 L793.434589,184.937153 C793.423973,184.922141 793.411644,184.910882 793.39726,184.902694 C793.382877,184.894847 793.360959,184.890753 793.330822,184.890753 L793.193493,184.890753 Z M792.356507,184.736541 C792.356507,184.838212 792.369178,184.936129 792.394863,185.029612 C792.419863,185.123435 792.455822,185.211459 792.503082,185.293 C792.550342,185.374541 792.606164,185.448576 792.671575,185.515106 C792.737671,185.581294 792.810274,185.638271 792.890411,185.685694 C792.97089,185.733118 793.057534,185.769624 793.150342,185.795553 C793.243151,185.821141 793.340068,185.834106 793.441096,185.834106 C793.592808,185.834106 793.734932,185.805447 793.867466,185.748129 C793.999658,185.691153 794.115068,185.613024 794.213356,185.514082 C794.311644,185.415141 794.389041,185.299482 794.44589,185.166082 C794.502397,185.032682 794.530822,184.889729 794.530822,184.736541 C794.530822,184.634871 794.517808,184.536271 794.492123,184.441424 C794.466096,184.346576 794.430137,184.258212 794.382877,184.176671 C794.335959,184.094788 794.27911,184.020412 794.213356,183.952859 C794.14726,183.885306 794.073973,183.827647 793.993836,183.780224 C793.913356,183.733141 793.826712,183.695953 793.732877,183.669682 C793.639384,183.643412 793.542123,183.630106 793.441096,183.630106 C793.290068,183.630106 793.147945,183.659106 793.016096,183.716765 C792.883904,183.774765 792.768836,183.853576 792.671575,183.953541 C792.573973,184.053847 792.496918,184.170871 792.441096,184.305294 C792.384589,184.439376 792.356507,184.583353 792.356507,184.736541 Z M792.184247,184.736541 C792.184247,184.620882 792.199315,184.509659 792.22911,184.402871 C792.259247,184.296082 792.30137,184.196118 792.355822,184.102635 C792.410616,184.009494 792.47637,183.925224 792.553082,183.849141 C792.629795,183.773059 792.714726,183.707553 792.807877,183.652624 C792.900685,183.597694 793.000685,183.555388 793.107192,183.525706 C793.214041,183.496024 793.325342,183.481012 793.441096,183.481012 C793.556849,183.481012 793.668493,183.496024 793.776027,183.525706 C793.883562,183.555388 793.983562,183.597694 794.076712,183.652624 C794.169178,183.707553 794.254452,183.773059 794.331507,183.849141 C794.408219,183.925224 794.47363,184.009494 794.528425,184.102635 C794.582877,184.196118 794.625,184.296082 794.654795,184.402871 C794.684932,184.509659 794.699658,184.620882 794.699658,184.736541 C794.699658,184.850835 794.684932,184.961376 794.654795,185.068506 C794.625,185.175294 794.582877,185.274918 794.528425,185.367718 C794.47363,185.460176 794.408219,185.544447 794.331507,185.620529 C794.254452,185.696612 794.169178,185.762118 794.076712,185.816706 C793.983562,185.871635 793.883562,185.914282 793.776027,185.943624 C793.668493,185.973647 793.556849,185.988318 793.441096,185.988318 C793.325342,185.988318 793.214041,185.973647 793.107192,185.943624 C793.000685,185.914282 792.900685,185.871635 792.807877,185.816706 C792.714726,185.762118 792.629795,185.696612 792.553082,185.620529 C792.47637,185.544447 792.410616,185.460176 792.355822,185.367718 C792.30137,185.274918 792.259247,185.175635 792.22911,185.069188 C792.199315,184.962741 792.184247,184.851859 792.184247,184.736541 L792.184247,184.736541 Z M790.373288,185.962047 C790.373288,185.801012 790.243836,185.639635 790.114384,185.575494 C789.791096,185.414118 789.306164,185.285494 788.335959,185.285494 C786.136644,185.285494 784.163699,186.380671 783.322945,188.185153 L783.322945,185.962047 C783.322945,185.7686 783.161301,185.607565 782.967123,185.607565 L779.668493,185.607565 C779.474315,185.607565 779.312671,185.7686 779.312671,185.962047 L779.312671,200.9762 C779.312671,201.169647 779.474315,201.330341 779.668493,201.330341 L783.12911,201.330341 C783.322945,201.330341 783.484589,201.169647 783.484589,200.9762 L783.484589,194.209988 C783.484589,191.181365 785.586986,189.699294 788.335959,189.699294 C788.982877,189.699294 789.629452,189.828259 789.920548,189.957224 C790.146918,190.021706 790.373288,189.860671 790.373288,189.635153 L790.373288,185.962047 Z M768.219863,197.625506 C765.858562,197.625506 764.015068,195.949988 764.015068,193.436882 C764.015068,190.923776 765.858562,189.248259 768.219863,189.248259 C770.580479,189.248259 772.423973,190.923776 772.423973,193.436882 C772.423973,195.982059 770.613014,197.625506 768.219863,197.625506 Z M768.219863,185.220671 C763.368493,185.220671 759.746575,188.539635 759.746575,193.468953 C759.746575,198.366541 763.368493,201.717235 768.219863,201.717235 C773.07089,201.717235 776.693151,198.398953 776.693151,193.468953 C776.725342,188.571706 773.103425,185.220671 768.219863,185.220671 Z M748.976712,197.625506 C746.615753,197.625506 744.77226,195.949988 744.77226,193.436882 C744.77226,190.923776 746.615753,189.248259 748.976712,189.248259 C751.337671,189.248259 753.181164,190.923776 753.181164,193.436882 C753.14863,195.982059 751.337671,197.625506 748.976712,197.625506 Z M748.976712,185.220671 C744.125342,185.220671 740.503425,188.539635 740.503425,193.468953 C740.503425,198.366541 744.125342,201.717235 748.976712,201.717235 C753.82774,201.717235 757.450342,198.398953 757.450342,193.468953 C757.450342,188.571706 753.82774,185.220671 748.976712,185.220671 Z M729.733904,197.689647 C727.372603,197.689647 725.594178,196.014471 725.594178,193.468953 C725.594178,190.923776 727.372603,189.248259 729.733904,189.248259 C732.062329,189.248259 733.87363,190.859294 733.87363,193.468953 C733.87363,196.046541 732.062329,197.689647 729.733904,197.689647 Z M737.560274,179.3248 L734.099658,179.3248 C733.905822,179.3248 733.744178,179.485835 733.744178,179.679282 L733.744178,187.863082 C732.677055,186.3486 730.897945,185.1886 728.440411,185.1886 C724.591438,185.1886 721.325,188.152741 721.325,193.468953 C721.325,198.785165 724.591438,201.717235 728.504795,201.717235 C730.801027,201.717235 732.611986,200.718271 733.744178,199.107576 L733.744178,200.944129 C733.744178,201.137235 733.905822,201.298612 734.1,201.298612 L737.560274,201.298612 C737.754452,201.298612 737.916096,201.137235 737.916096,200.944129 L737.916096,179.646871 C737.916096,179.485835 737.754452,179.3248 737.560274,179.3248 Z M719.028767,196.562059 C719.028767,200.138271 716.409247,201.684824 712.204795,201.684824 C709.294178,201.684824 706.803767,200.911718 705.380822,199.300682 C705.283904,199.171718 705.283904,198.978612 705.380822,198.849647 L707.385959,196.272059 C707.515411,196.111024 707.773973,196.111024 707.903425,196.239647 C708.970548,197.303435 710.587671,197.979647 712.625342,197.979647 C713.789726,197.979647 714.727397,197.657576 714.727397,196.787576 C714.727397,195.949988 713.886644,195.756541 711.234589,195.176541 C708.906164,194.693435 705.995205,193.630329 705.995205,190.214812 C705.995205,187.025153 708.518151,185.220671 712.657534,185.220671 C715.374315,185.220671 717.314726,186.026529 718.705479,187.315153 C718.834932,187.444118 718.834932,187.637224 718.737671,187.7986 L716.829795,190.247224 C716.700342,190.408259 716.473973,190.440329 716.344521,190.311365 C715.406507,189.473776 713.85411,188.958259 712.334247,188.958259 C711.040411,188.958259 710.32911,189.377224 710.32911,190.053776 C710.32911,190.827224 711.169863,191.020329 713.983562,191.6324 C716.700342,192.244812 719.028767,193.275847 719.028767,196.562059 Z M703.020205,196.562059 C703.020205,200.138271 700.400342,201.684824 696.19589,201.684824 C693.285274,201.684824 690.795205,200.911718 689.371918,199.300682 C689.275,199.171718 689.275,198.978612 689.371918,198.849647 L691.377055,196.272059 C691.506507,196.111024 691.765411,196.111024 691.894521,196.239647 C692.961986,197.303435 694.57911,197.979647 696.616438,197.979647 C697.780822,197.979647 698.718493,197.657576 698.718493,196.787576 C698.718493,195.949988 697.87774,195.756541 695.225685,195.176541 C692.89726,194.693435 689.986301,193.630329 689.986301,190.214812 C689.986301,187.025153 692.509247,185.220671 696.64863,185.220671 C699.365411,185.220671 701.305822,186.026529 702.696575,187.315153 C702.826027,187.444118 702.826027,187.637224 702.728767,187.7986 L700.82089,190.247224 C700.691438,190.408259 700.465068,190.440329 700.335616,190.311365 C699.397603,189.473776 697.845548,188.958259 696.325342,188.958259 C695.031849,188.958259 694.320205,189.377224 694.320205,190.053776 C694.320205,190.827224 695.160959,191.020329 697.975,191.6324 C700.691438,192.244812 703.020205,193.275847 703.020205,196.562059 Z M682.257192,194.983435 C682.257192,196.723094 680.833904,198.205165 678.634589,198.205165 C677.179452,198.205165 676.403082,197.561024 676.403082,196.529988 C676.403082,195.659988 677.082534,194.983435 678.343836,194.789988 L682.257192,194.306541 L682.257192,194.983435 Z M679.507877,185.253082 C676.209247,185.253082 673.718836,186.3486 672.586986,188.539635 C672.52226,188.700671 672.554795,188.894118 672.716438,188.990671 L675.239041,190.794812 C675.400685,190.923776 675.627055,190.859294 675.723973,190.698259 C676.435616,189.441706 677.988014,189.022741 679.507877,189.022741 C681.383904,189.022741 682.257192,189.667224 682.257192,190.601706 L682.257192,190.859294 C682.257192,191.245847 682.030479,191.439294 681.448288,191.503776 L677.114726,191.890329 C674.20411,192.180329 672.069521,193.9524 672.069521,196.819988 C672.069521,199.719647 674.268836,201.717235 677.405822,201.717235 C679.863699,201.717235 681.448288,200.525165 682.257192,199.268271 L682.257192,201.040682 C682.257192,201.233788 682.418836,201.395165 682.612671,201.395165 L686.073288,201.395165 C686.267466,201.395165 686.42911,201.233788 686.42911,201.040682 L686.42911,191.664812 C686.42911,187.282741 684.100342,185.253082 679.507877,185.253082 Z M669.22363,179.679282 L669.22363,200.9762 C669.22363,201.169647 669.061644,201.330341 668.867808,201.330341 L665.375,201.330341 C665.180822,201.330341 665.019178,201.169647 665.019178,200.9762 L665.019178,179.679282 C665.019178,179.485835 665.180822,179.3248 665.375,179.3248 L668.867808,179.3248 C669.061644,179.3248 669.22363,179.485835 669.22363,179.679282 Z M653.408562,197.657576 C651.047945,197.657576 649.268836,195.982059 649.268836,193.436882 C649.268836,190.891706 651.047945,189.216188 653.408562,189.216188 C655.769521,189.216188 657.516096,190.827224 657.516096,193.436882 C657.516096,196.014471 655.769521,197.657576 653.408562,197.657576 Z M661.235274,185.607565 L657.774658,185.607565 C657.580479,185.607565 657.418836,185.7686 657.418836,185.962047 L657.418836,187.7986 C656.54589,186.380671 654.702397,185.220671 652.276712,185.220671 C648.363356,185.220671 645,188.152741 645,193.404812 C645,198.624129 648.201712,201.491718 652.406164,201.491718 C654.669863,201.491718 656.44863,200.557576 657.483562,199.075165 L657.483562,200.074129 C657.483562,202.329306 656.383904,204.133788 652.858904,204.133788 C651.080137,204.133788 649.657192,203.553788 648.39589,202.425859 C648.233904,202.297235 647.975342,202.329306 647.878425,202.490682 L646.326027,205.100341 C646.131849,205.422412 646.164041,205.615859 646.293493,205.744824 C647.910616,207.13 650.013014,208 653.053082,208 C659.682877,208 661.623288,204.326894 661.623288,200.267235 L661.623288,185.929635 C661.591096,185.736529 661.429452,185.607565 661.235274,185.607565 L661.235274,185.607565 Z"></path>
            </g>
        </g>
    </g>
</svg>