<?xml version="1.0" encoding="UTF-8" standalone="no"?>
<svg width="127px" height="38px" viewBox="0 0 127 38" version="1.1" xmlns="http://www.w3.org/2000/svg" xmlns:xlink="http://www.w3.org/1999/xlink">
    <!-- Generator: Sketch 43.2 (39069) - http://www.bohemiancoding.com/sketch -->
    <title>spotify-logo</title>
    <desc>Created with Sketch.</desc>
    <defs></defs>
    <g id="Symbols" stroke="none" stroke-width="1" fill="none" fill-rule="evenodd">
        <g id="Logo-Bar" transform="translate(-455.000000, -25.000000)" fill="#7F90A0">
            <g id="spotify-logo">
                <path d="M498.279838,49.9219277 L500.532645,47.2385599 C502.092297,48.5188173 503.726218,49.3309402 505.706683,49.3309402 C507.266335,49.3309402 508.207099,48.7153821 508.207099,47.7060478 L508.207099,47.6569066 C508.207099,46.6967136 507.612946,46.204655 504.716517,45.4662439 C501.225868,44.5797627 498.97306,43.6195696 498.97306,40.1977907 L498.97306,40.1486495 C498.97306,37.0223644 501.49821,34.9545547 505.038327,34.9545547 C507.563477,34.9545547 509.717216,35.742107 511.47494,37.145864 L509.494408,40.0012259 C507.959557,38.9427505 506.449441,38.3026218 504.988793,38.3026218 C503.528211,38.3026218 502.760653,38.9673211 502.760653,39.8040146 L502.760653,39.8531558 C502.760653,40.9859896 503.50341,41.3551951 506.498975,42.1181768 C510.014292,43.0292287 511.994824,44.2842689 511.994824,47.2877011 L511.994824,47.3368423 C511.994824,50.7586212 509.370671,52.6790073 505.63248,52.6790073 C503.008327,52.6790073 500.359373,51.7679554 498.279838,49.9219277 Z M543.871016,48.599818 L543.871016,42.2205151 L542.214478,42.2205151 L542.214478,39.2157898 L543.871016,39.2157898 L543.871016,35.7804324 L547.317156,35.7804324 L547.317156,39.2157898 L550.779235,39.2157898 L550.779235,42.2205151 L547.317156,42.2205151 L547.317156,48.1135788 C547.317156,49.1972714 548.00694,49.4481501 548.851743,49.4481501 C549.547544,49.4481501 550.182833,49.2211954 550.729501,48.9257017 L550.729501,51.7978751 C549.934366,52.265363 549.014897,52.5608568 547.74756,52.5608568 C545.43662,52.5608568 543.871016,51.6504515 543.871016,48.599818 Z M552.256681,39.4968821 L555.658643,39.4968821 L555.658643,52.523178 L552.256681,52.523178 L552.256681,39.4968821 Z M561.953703,39.2005654 L565.30871,39.1960393 L567.110215,39.1960393 L570.6213,48.0918885 L573.823535,39.2238428 L577.361735,39.228369 L571.878518,53.133387 C571.473113,54.1575929 570.334937,56.152984 567.954093,56.152984 C566.607593,56.152984 565.276965,55.8174014 564.321982,55.2587436 L565.566635,52.6768911 C566.056692,52.9685053 566.841709,53.2433081 567.331105,53.2433081 C567.967981,53.2433081 568.549304,52.8443592 568.89651,52.047108 L564.746566,42.1089482 L561.985448,42.1089482 L561.985448,52.1854792 L558.444603,52.1854792 L558.444603,42.1057152 L556.859357,42.1057152 L556.859357,39.1759948 L558.521319,39.1759948 L558.521319,38.3431809 C558.521319,36.8973953 558.957807,35.8440926 559.66214,35.1580557 C560.367135,34.4720187 561.262597,34.128677 562.621662,34.128677 C563.82928,34.128677 564.634137,34.2761006 565.339132,34.4965893 L565.339132,37.4534667 C564.785585,37.2575485 564.25717,37.1353421 563.602438,37.1353421 C562.722187,37.1353421 561.953703,37.5763197 561.953703,38.5559106 L561.953703,39.2005654 Z M556.103935,35.8010059 C556.103935,36.9525909 555.149084,37.8862736 553.971096,37.8862736 C552.793107,37.8862736 551.838256,36.9525909 551.838256,35.8010059 C551.838256,34.6494208 552.793107,33.7157381 553.971096,33.7157381 C555.149084,33.7157381 556.103935,34.6494208 556.103935,35.8010059 Z M579.896259,39.0839433 C581.079407,39.0839433 582,40.0124532 582,41.1349415 C582,42.2690685 581.067503,43.2092171 579.884355,43.2092171 C578.701208,43.2092171 577.780615,42.2800606 577.780615,41.1575723 C577.780615,40.0240919 578.713112,39.0839433 579.896259,39.0839433 Z M581.735834,41.1443498 L581.735834,41.1327111 C581.735834,40.1240234 580.93759,39.3093142 579.876791,39.3093142 C578.810041,39.3093142 578.005845,40.1356621 578.005845,41.1443498 L578.005845,41.1553419 C578.005845,42.1640296 578.804089,42.9787388 579.864887,42.9787388 C580.931638,42.9787388 581.735834,42.1530374 581.735834,41.1443498 Z M578.971057,40.1375832 L579.967705,40.1375832 C580.270601,40.1375832 580.504056,40.2229337 580.661457,40.3768233 C580.783805,40.4964433 580.847956,40.6619715 580.847956,40.8553033 L580.847956,40.866942 C580.847956,41.2199827 580.649552,41.4424113 580.363851,41.5452198 L580.911445,42.3314789 L580.334752,42.3314789 L579.856599,41.6247509 L579.466405,41.6247509 L579.466405,42.3314789 L578.971057,42.3314789 L578.971057,40.1375832 Z M579.949663,41.1928364 C580.200313,41.1928364 580.334566,41.0615777 580.334566,40.879238 L580.334566,40.8675993 C580.334566,40.6568094 580.183118,40.5488281 579.937759,40.5488281 L579.454315,40.5488281 L579.454315,41.1928364 L579.949663,41.1928364 Z M535.119379,39.0839433 C539.149554,39.0839433 542.135926,42.088022 542.135926,45.8499097 L542.135926,45.8984043 C542.135926,49.6596454 539.125282,52.7128653 535.070836,52.7128653 C531.040464,52.7128653 527.988023,49.7087866 527.988023,45.9475455 L527.988023,45.8984043 C527.988023,42.1371632 531.064735,39.0839433 535.119379,39.0839433 Z M535.048748,49.7575751 C537.099514,49.7575751 538.762005,48.0156491 538.762005,45.8663685 C538.762005,43.7170878 537.099514,41.9745153 535.048748,41.9745153 C532.997981,41.9745153 531.335424,43.7170878 531.335424,45.8663685 C531.335424,48.0156491 532.997981,49.7575751 535.048748,49.7575751 Z M521.167457,39.0839433 C524.147878,39.0839433 527.152107,41.5306574 527.152107,45.8802996 L527.152107,45.9287942 C527.152107,50.2790831 524.017659,52.6611378 520.902654,52.6611378 C518.915906,52.6611378 517.689573,51.7617246 516.806544,50.7168276 L516.806544,56.2413323 L513.343143,56.2413323 L513.343143,39.3270628 L516.740343,39.3270628 L516.740343,41.0689888 C517.647842,39.8540375 518.981115,39.0839433 521.167457,39.0839433 Z M520.198718,49.6767507 C522.136196,49.6767507 523.706826,47.9522828 523.706826,45.825633 C523.706826,43.6983366 522.136196,41.9745153 520.198718,41.9745153 C518.261174,41.9745153 516.690544,43.6983366 516.690544,45.825633 C516.690544,47.9522828 518.261174,49.6767507 520.198718,49.6767507 Z M474.252433,63 C463.6196,63 455,54.4934175 455,44 C455,33.5065825 463.6196,25 474.252433,25 C484.885266,25 493.504866,33.5065825 493.504866,44 C493.504866,54.4934175 484.885266,63 474.252433,63 Z M488.242534,40.2079457 C488.225927,40.0821174 488.21918,39.9540727 488.190895,39.830792 C488.072047,39.3115815 487.759876,38.9362366 487.295122,38.6698801 C485.990905,37.922808 484.6187,37.3230409 483.19304,36.8398287 C479.69654,35.6547141 476.083553,35.1257206 472.398894,35.0221587 C470.903274,34.9801226 469.408692,35.0231778 467.916861,35.1568783 C466.511753,35.2828085 465.117855,35.4756145 463.743185,35.7875994 C463.187868,35.913657 462.632888,36.051179 462.092077,36.2262023 C461.353375,36.4652481 460.883276,37.1607303 460.904788,37.9088469 C460.926949,38.6790262 461.442382,39.3367268 462.190088,39.5515189 C462.531712,39.6496288 462.869702,39.6381644 463.21265,39.5481815 C463.771911,39.4014625 464.330809,39.2502596 464.896325,39.1303419 C466.428845,38.805364 467.98189,38.6366078 469.547262,38.5570448 C470.913472,38.4876214 472.278566,38.4970987 473.642752,38.5775279 C474.95478,38.6549 476.259672,38.8034023 477.554832,39.0276972 C479.415482,39.3499491 481.235936,39.8152004 482.992451,40.5065555 C483.876548,40.8545641 484.725353,41.2720216 485.554436,41.7326617 C486.777172,42.4118135 488.236826,41.5748095 488.242534,40.2079457 Z M470.83127,44.5459071 C472.59663,44.5532954 474.257877,44.704204 475.903694,45.0129461 C478.041297,45.4139273 480.101308,46.050127 482.044166,47.0315475 C482.468101,47.2456306 482.87775,47.4872079 483.292334,47.7189511 C484.027209,48.1297148 484.911447,47.914396 485.336682,47.2219723 C485.708405,46.6164074 485.615409,45.6660079 484.835596,45.1939231 C484.761823,45.1492066 484.68805,45.1044128 484.613497,45.0605716 C483.118552,44.1793707 481.535806,43.4912463 479.881054,42.9656922 C476.608825,41.9262973 473.25464,41.4861088 469.821045,41.615264 C468.225026,41.6752979 466.645501,41.8566868 465.087017,42.1997193 C464.453945,42.3390433 463.824457,42.5017424 463.204295,42.6893869 C462.594835,42.8737878 462.209371,43.4194476 462.188356,44.045942 C462.168198,44.6465642 462.540051,45.2141575 463.111585,45.4436095 C463.462787,45.5846068 463.822483,45.5775274 464.180932,45.4721076 C466.380671,44.8251213 468.632752,44.555046 470.83127,44.5459071 Z M471.263968,47.6733333 C470.409055,47.7208751 469.552455,47.7488862 468.699568,47.8203016 C467.171669,47.9482018 465.661634,48.1995563 464.165622,48.5319375 C464.047758,48.5581497 463.928595,48.5865462 463.816963,48.6309785 C463.288067,48.84137 463.002404,49.3762533 463.107648,49.94696 C463.20705,50.4858779 463.685077,50.8834041 464.251339,50.8772365 C464.439315,50.8751807 464.629367,50.8384322 464.814097,50.7980859 C466.643032,50.3973218 468.491624,50.1402879 470.363743,50.0674334 C471.810963,50.0111542 473.252237,50.0864758 474.685512,50.3036774 C477.021246,50.6577735 479.218627,51.397626 481.254884,52.5920805 C481.359011,52.6532424 481.46236,52.7180019 481.57246,52.7660577 C482.121663,53.0060793 482.763827,52.8033201 483.066343,52.2996345 C483.378467,51.7802729 483.252527,51.1205989 482.767722,50.7561978 C482.671644,50.6839857 482.565959,50.6235948 482.461831,50.5622531 C481.260337,49.853881 479.995275,49.2818637 478.670464,48.8397254 C476.26867,48.0380942 473.793831,47.6996997 471.263968,47.6733333 Z"></path>
            </g>
        </g>
    </g>
</svg>