<?xml version="1.0" encoding="UTF-8" standalone="no"?>
<svg width="97px" height="20px" viewBox="0 0 97 20" version="1.1" xmlns="http://www.w3.org/2000/svg" xmlns:xlink="http://www.w3.org/1999/xlink">
    <!-- Generator: Sketch 43.2 (39069) - http://www.bohemiancoding.com/sketch -->
    <title>uber-logo</title>
    <desc>Created with Sketch.</desc>
    <defs></defs>
    <g id="Symbols" stroke="none" stroke-width="1" fill="none" fill-rule="evenodd">
        <g id="Logo-Bar" transform="translate(-267.000000, -34.000000)" fill="#7F90A0">
            <g id="uber-logo">
                <path d="M282.746402,34 L286.476897,34 L286.476897,45.6904277 C286.476897,51.8411405 282.499076,54 276.728143,54 C270.977821,54 267,51.8411405 267,45.6904277 L267,34.4684318 C267,34.1425662 267.164884,34 267.494651,34 L271.225147,34 L271.225147,45.5071283 C271.225147,49.1934827 272.873985,50.7209776 276.728143,50.7209776 C280.602912,50.7209776 282.25175,49.1934827 282.25175,45.5071283 L282.25175,34.4684318 C282.25175,34.1425662 282.416634,34 282.746402,34 L282.746402,34 Z M324.977261,37.197556 L324.977261,42.1262729 L334.416858,42.1262729 C334.581742,42.1262729 334.643573,42.2077393 334.581742,42.3706721 L333.551218,44.8961303 C333.448166,45.1201629 333.303892,45.2219959 332.994735,45.2219959 L327.450518,45.2219959 C325.636796,45.2219959 324.977261,45.7718941 324.977261,46.9735234 L324.977261,50.4562118 L337.755755,50.4562118 C337.920638,50.4562118 337.98247,50.5376782 337.920638,50.700611 L336.848894,53.3279022 C336.745841,53.5519348 336.601568,53.6537678 336.292411,53.6537678 L322.2979,53.6537678 C321.226155,53.6537678 320.813946,53.287169 320.813946,52.4928717 L320.813946,35.3645621 C320.813946,34.407332 321.349818,34 322.75133,34 L337.755755,34 C337.920638,34 337.98247,34.0814664 337.920638,34.2240326 L336.848894,36.8716904 C336.745841,37.095723 336.601568,37.197556 336.292411,37.197556 L324.977261,37.197556 L324.977261,37.197556 Z M313.126239,48.2158859 C313.126239,52.1466395 310.323215,53.6537678 306.386614,53.6537678 L295.957715,53.6537678 C294.86536,53.6537678 294.473761,53.287169 294.473761,52.4928717 L294.473761,35.3645621 C294.473761,34.407332 294.989023,34 296.411145,34 L304.88205,34 C308.591935,34 312.178157,34.6313646 312.178157,38.9898167 C312.178157,40.8635438 311.498012,42.4521385 309.869784,43.287169 C312.116326,43.8778004 313.126239,45.8737271 313.126239,48.2158859 L313.126239,48.2158859 Z M298.575245,42.1873727 L305.191207,42.1873727 C307.375917,42.1873727 307.994231,41.3523422 307.994231,39.6415479 C307.994231,37.9307536 307.375917,37.1160896 305.191207,37.1160896 L298.575245,37.1160896 L298.575245,42.1873727 L298.575245,42.1873727 Z M308.942313,47.8492872 C308.942313,46.0366599 308.303388,45.1405295 305.953794,45.1405295 L301.069112,45.1405295 C299.255391,45.1405295 298.575245,45.6904277 298.575245,46.892057 L298.575245,50.5376782 L305.953794,50.5376782 C308.303388,50.5376782 308.942313,49.6415479 308.942313,47.8492872 L308.942313,47.8492872 Z M363.766172,53.6537678 L359.973845,53.6537678 C359.664688,53.6537678 359.541025,53.5315682 359.417362,53.3279022 L355.39832,46.1588595 L351.709045,46.1588595 C349.895323,46.1588595 349.215178,46.7087576 349.215178,47.910387 L349.215178,53.6537678 L345.587734,53.6537678 C345.257967,53.6537678 345.093083,53.490835 345.093083,53.185336 L345.093083,35.3645621 C345.093083,34.407332 345.628955,34 347.030467,34 L355.542593,34 C360.509717,34 363.498236,35.2830957 363.498236,40.0488798 C363.498236,43.7352342 361.705124,45.1812627 359.479193,45.7515275 L363.951666,53.3075356 C364.034108,53.4297352 364.034108,53.6537678 363.766172,53.6537678 L363.766172,53.6537678 Z M359.31431,40.1303462 C359.31431,38.1344196 358.757827,37.1568228 356.160907,37.1568228 L349.215178,37.1568228 L349.215178,43.1038697 L356.160907,43.1038697 C358.757827,43.1038697 359.31431,42.1466395 359.31431,40.1303462 L359.31431,40.1303462 Z"></path>
            </g>
        </g>
    </g>
</svg>