<?xml version="1.0" encoding="UTF-8" standalone="no"?>
<svg width="89px" height="40px" viewBox="0 0 89 40" version="1.1" xmlns="http://www.w3.org/2000/svg" xmlns:xlink="http://www.w3.org/1999/xlink">
    <!-- Generator: Sketch 43.2 (39069) - http://www.bohemiancoding.com/sketch -->
    <title>yelp-logo</title>
    <desc>Created with Sketch.</desc>
    <defs></defs>
    <g id="Symbols" stroke="none" stroke-width="1" fill="none" fill-rule="evenodd">
        <g id="Logo-Bar" transform="translate(-1081.000000, -24.000000)" fill="#7F90A0">
            <g id="yelp-logo">
                <path d="M1144.25719,40.5877921 C1144.52456,40.1728308 1144.90765,39.9568022 1145.3392,39.973898 C1145.62065,39.9770063 1145.87239,40.0671477 1151.46386,42.3595371 C1151.46698,42.3595371 1153.09783,43.0200561 1153.09783,43.0200561 C1153.68887,43.2407472 1154.04694,43.8499788 1154.00941,44.5400268 C1153.97188,45.2129791 1153.58411,45.7398401 1153.00714,45.8859314 C1152.99776,45.8905939 1150.68518,46.6241585 1150.68518,46.6241585 C1145.48149,48.2871121 1145.30949,48.333737 1145.03274,48.3197495 C1144.60118,48.3042079 1144.22279,48.0508794 1143.99763,47.625039 C1143.83345,47.3173148 1143.72087,46.801333 1143.65207,46.1827764 C1143.45662,44.3084566 1143.69429,41.4845438 1144.25719,40.5877921 Z M1156.76605,57.6680357 C1156.61751,58.0721179 1156.2657,58.3425422 1155.78254,58.4295752 C1154.39093,58.6658079 1150.03472,57.0727916 1149.12626,56.0004196 C1148.94332,55.7766202 1148.8323,55.5372792 1148.80885,55.2948299 C1148.79009,55.1254262 1148.81354,54.9544684 1148.87139,54.7959438 C1148.96677,54.5255196 1149.13095,54.3141535 1153.04779,49.7402539 C1153.05092,49.7402539 1154.19235,48.3943493 1154.19235,48.3943493 C1154.58325,47.9110048 1155.27906,47.7586969 1155.92483,48.0058087 C1156.55184,48.2451497 1156.93492,48.7813357 1156.89739,49.3703632 C1156.89583,49.3936757 1156.88332,51.7948564 1156.88332,51.7948564 C1156.86769,57.2282078 1156.85674,57.4069365 1156.76605,57.6680357 Z M1165.60357,55.7766202 C1165.14856,55.9584572 1164.71074,55.9149407 1164.36675,55.6460706 C1164.14472,55.4735586 1163.90861,55.1207637 1160.82205,50.1381194 L1159.90421,48.6523403 C1159.5524,48.1208168 1159.61807,47.4167812 1160.05901,46.8837036 C1160.48275,46.3646134 1161.11288,46.1672347 1161.66484,46.380155 C1161.69454,46.3941424 1163.97585,47.1432487 1163.97585,47.1432487 C1169.17641,48.8403939 1169.34372,48.9041145 1169.56418,49.0688558 C1169.90036,49.3361717 1170.05359,49.7542413 1169.98323,50.23914 C1169.78153,51.6332235 1166.917,55.2559758 1165.60357,55.7766202 Z M1162.91572,42.9485646 C1161.96818,43.172364 1161.44749,43.2998053 1161.15666,43.4085967 C1161.16292,43.4008259 1161.18637,43.3588635 1161.18637,43.3588635 C1160.59533,43.5220505 1159.95112,43.239193 1159.5696,42.6594905 C1159.20059,42.099992 1159.20684,41.4472439 1159.58367,40.9918743 C1159.60087,40.9732244 1161.03001,39.0382923 1161.03001,39.0382923 C1164.19475,34.7363711 1164.36206,34.5125717 1164.59035,34.3649263 C1164.95936,34.1193687 1165.40342,34.1053812 1165.84749,34.3167473 C1167.09994,34.9259789 1169.64237,38.6777267 1169.79404,40.1199893 C1169.79716,40.1370851 1169.79404,40.1541808 1169.79404,40.1697225 C1169.82531,40.6577294 1169.64549,41.0587033 1169.28743,41.2980443 C1169.05445,41.4503522 1168.82616,41.524952 1162.91572,42.9485646 Z M1156.98339,38.0980241 C1157.08034,40.0826894 1156.22348,40.346897 1155.94359,40.4323759 C1155.66058,40.5209631 1154.79903,40.7851707 1153.7436,39.083363 C1153.7436,39.083363 1146.59947,27.9104903 1146.4306,27.5670204 C1146.3274,27.1784798 1146.45406,26.7402061 1146.79805,26.3843029 C1147.86599,25.2886185 1153.63258,23.6831689 1155.14146,24.0546136 C1155.63244,24.1773925 1155.97487,24.4882249 1156.0937,24.9233904 C1156.17657,25.4036265 1156.88176,35.769889 1156.98339,38.0980241 Z M1083.8034,62.66933 C1083.38905,62.2901144 1083.20611,61.7943366 1083.27647,61.2301757 C1083.37654,60.3536282 1084.00198,59.7863589 1084.99644,59.6651343 C1085.06993,59.6651343 1086.0378,59.6868925 1086.0378,59.6868925 C1086.50219,59.7055425 1086.89935,59.5656679 1087.18549,59.298352 C1087.47632,59.0263736 1087.63894,58.619183 1087.65144,58.1358386 C1087.65144,58.1234053 1087.59515,57.7830437 1087.59515,57.7830437 C1087.59515,57.7099981 1087.42628,57.2623994 1087.42628,57.2623994 C1087.41221,57.2282078 1081.20625,44.6752389 1081.20625,44.6752389 C1080.7059,43.2314222 1081.12338,42.1108712 1082.37739,41.6368517 C1083.33901,41.2576361 1084.28343,41.7161139 1084.60554,42.3564288 C1084.60866,42.357983 1089.71072,51.9378393 1089.71072,51.9378393 L1092.21562,43.4816423 C1092.88484,41.209457 1093.94653,41.1861446 1094.79713,41.4177148 C1095.33814,41.5606977 1095.72123,41.8388928 1095.95108,42.2491916 C1096.23409,42.7589568 1096.25285,43.4458966 1096.0058,44.2369652 L1091.23211,59.1444899 C1090.27362,62.1735522 1089.2776,62.8869127 1087.67177,63.2024076 C1085.95806,63.5489858 1084.54768,63.3547156 1083.8034,62.66933 Z M1112.34082,47.3841438 C1112.52845,49.3097509 1112.56285,50.689847 1112.12504,51.1731915 C1111.91082,51.4032075 1111.53869,51.4980114 1110.80379,51.4980114 L1102.83877,51.4980114 L1102.74652,51.5601779 C1102.40252,51.7839773 1102.451,52.3341507 1102.55732,52.8889867 C1102.54794,52.8206035 1102.7043,53.4360518 1102.7043,53.4360518 C1103.05455,54.366995 1103.82853,55.0461639 1104.81986,55.2963841 C1106.12078,55.6243123 1107.58901,55.1829302 1108.85553,54.0856916 C1109.73428,53.303948 1110.13144,53.2106983 1110.60208,53.303948 C1111.42454,53.4142935 1111.98431,54.1385332 1111.98431,55.0585972 C1111.98431,56.3096979 1110.35347,58.2881465 1106.72746,58.7948034 C1104.18504,59.1367191 1102.09449,58.5849915 1100.68099,57.1971245 C1098.80622,55.3616589 1098.09322,52.116568 1098.61234,47.8099843 C1099.03451,44.2074361 1100.87644,42.0285006 1103.94424,41.5000854 C1106.39129,41.0649199 1108.45838,41.4161606 1109.91879,42.5180617 C1111.29007,43.5484713 1112.1266,45.2300749 1112.34082,47.3841438 Z M1108.25667,48.5342239 C1108.34736,48.5342239 1108.43023,48.3617119 1108.30358,47.4836102 C1108.03933,45.47097 1106.41005,44.2913609 1104.07402,44.8586301 C1103.32505,45.0326963 1102.66677,45.4243452 1102.18049,46.035131 C1102.09449,46.1687889 1102.00537,46.3024469 1101.91937,46.4329965 C1101.65356,46.8681619 1101.56287,47.1789944 1101.47843,47.5255726 C1101.34396,48.1845374 1101.43152,48.4036743 1101.61134,48.5342239 L1108.25667,48.5342239 Z M1119.56156,35.9921342 C1120.05566,36.1926212 1120.41998,36.5718368 1120.531,37.0101105 C1120.531,37.0272063 1120.65139,37.9410537 1120.65139,37.9410537 L1120.65139,56.8536547 C1120.65139,57.7068898 1120.24329,58.3953837 1119.55061,58.6937828 C1118.99397,58.9533279 1118.37165,58.9579904 1117.83221,58.7093245 C1117.34593,58.4901876 1116.99568,58.0892137 1116.86121,57.6183025 C1116.85026,57.5887734 1116.7455,56.914267 1116.7455,56.914267 L1116.7455,38.0374118 C1116.7455,37.0660604 1116.99568,36.5283202 1117.5961,36.1755254 C1118.21998,35.8056347 1118.93143,35.7372516 1119.56156,35.9921342 Z M1134.78641,41.3058151 C1138.83147,42.0875587 1140.34817,45.2176416 1139.84156,51.7684357 C1139.5992,55.0461639 1138.55158,56.9981918 1136.43133,58.0985387 C1134.74732,58.9610987 1132.65521,59.0465777 1131.09161,58.3130131 C1131.09161,58.3130131 1130.9071,58.2228717 1130.90397,58.2228717 C1130.90397,58.2228717 1130.70227,58.1063095 1130.7007,58.1047553 L1130.52558,57.9897473 C1130.46304,57.9244725 1130.31606,57.8281144 1130.31606,57.8281144 L1129.73283,57.4426822 L1129.54051,58.053468 L1129.52018,58.1265136 L1129.50611,58.2788215 L1129.54051,58.7948034 L1129.54051,62.0010402 L1129.42324,62.7952171 C1129.29033,63.2490325 1128.93383,63.6220315 1128.44911,63.8333975 C1127.87839,64.077401 1127.21386,64.0540886 1126.62281,63.7587977 C1125.92232,63.426207 1125.60178,62.7952171 1125.60178,61.7803491 L1125.60178,43.2531804 C1125.60178,42.0704629 1125.88792,41.6741516 1126.38671,41.3928482 C1127.40618,40.8146998 1128.53667,41.1099906 1128.95259,41.7534138 C1128.96666,41.7736179 1129.06361,41.9026134 1129.06361,41.9026134 L1129.07455,41.9321425 L1129.10739,42.0316089 L1129.20277,42.1916876 L1129.31535,42.6346239 L1129.7125,42.4574494 L1129.84228,42.3921745 C1129.90483,42.3548746 1130.06744,42.224325 1130.06744,42.224325 C1131.51691,41.2483111 1133.02423,40.9483578 1134.78641,41.3058151 Z M1134.59096,55.1658344 C1137.12557,55.1658344 1137.66501,53.1190027 1137.6916,50.0402072 C1137.72912,47.4105646 1137.31946,45.834644 1136.38911,45.0902003 C1135.76992,44.5944225 1134.94434,44.4731978 1133.86388,44.7218638 C1132.25493,45.0544545 1131.6248,46.2496054 1131.45436,49.2802218 C1131.45436,49.3097509 1131.42465,50.0681821 1131.42465,50.0681821 C1131.42465,50.0681821 1131.45436,51.0892667 1131.45905,51.0939292 C1131.54193,52.8454701 1131.96097,55.1658344 1134.59096,55.1658344 Z M1144.29628,56.6733719 C1144.29628,57.2996993 1143.79123,57.7675021 1143.19081,57.7675021 C1142.58882,57.7675021 1142.08533,57.2996993 1142.08533,56.684251 C1142.08533,56.0579236 1142.58882,55.5885666 1143.19081,55.5885666 C1143.79123,55.5885666 1144.29628,56.0579236 1144.29628,56.6733719 Z M1143.19081,57.6089776 C1143.70523,57.6089776 1144.11959,57.2064495 1144.11959,56.6733719 C1144.11959,56.1496192 1143.70523,55.745537 1143.19081,55.745537 C1142.67482,55.745537 1142.26046,56.1496192 1142.26046,56.684251 C1142.26046,57.2064495 1142.67482,57.6089776 1143.19081,57.6089776 Z M1142.77958,56.0548153 L1143.24553,56.0548153 C1143.55044,56.0548153 1143.69272,56.1651608 1143.69272,56.4169351 C1143.69272,56.6438428 1143.54731,56.7386467 1143.35655,56.7588508 L1143.724,57.316795 L1143.53167,57.316795 L1143.18455,56.7743924 L1142.95783,56.7743924 L1142.95783,57.316795 L1142.77958,57.316795 L1142.77958,56.0548153 Z M1142.95783,56.6158678 L1143.17517,56.6158678 C1143.35186,56.6158678 1143.5176,56.6065429 1143.5176,56.4091643 C1143.5176,56.2319898 1143.36593,56.2133398 1143.2299,56.2133398 L1142.95783,56.2133398 L1142.95783,56.6158678 Z"></path>
            </g>
        </g>
    </g>
</svg>